# xmcd CD database file
#
# Track frame offsets:
#	180
#	13731
#	23697
#	34772
#	46965
#	60894
#	73597
#	88786
#	101024
#	113658
#	128198
#	140031
#	151552
#	161044
#	174117
#	186197
#	197610
#	209617
#	220537
#	232973
#	245127
#	257759
#	271864
#	283783
#	295134
#	310628
#
# Disc length: 4303 seconds
#
# Revision: 0
# Processed by: cddbd v1.5.2PL0 Copyright (c) Steve Scherf et al.
# Submitted via: CDex 1.51
#
DISCID=6a10cd1a
DTITLE=Country Trail - CD 1
DYEAR=1900
DGENRE=Country
TTITLE0=The Armstrong Twins - Mandolinen Boogie
TTITLE1=Cliff Carlisle - Pan American Man
TTITLE2=Andy Renolds - Beer Bottel Man
TTITLE3=Bing Crosby - Deep in the Heart of Texsas
TTITLE4=Don Mc Cord - Can´t Live Without You
TTITLE5=Kentucky Ramblers - Ginseng Blues
TTITLE6=Jimmy Rogers - A Drunkhard´s Child
TTITLE7=Floyd Tillman - I Love you so much it hürts
TTITLE8=Tennesee Erni Ford - Stack - O - Lee
TTITLE9=Tex Ritter - Rye Whiskey
TTITLE10=Curley Willliams - Fiddin Boggie
TTITLE11=The Monroe Brothers /Sinner you better get ready
TTITLE12=Riverside Ramblers - Drifting Along
TTITLE13=Bill Haley - Cotton haired gal
TTITLE14=Jimmy Rodgers - Let me be your slide Track
TTITLE15=Jimmy Wakely - Oklahoma Blus
TTITLE16=Jesse James - Rag Mop
TTITLE17=The Buchanan Brothers - High tempret Mama
TTITLE18=Hank Penny - I´m singing the Blus
TTITLE19=The Monroe Brothers - All the good Times
TTITLE20=Woody Guthrie - I ain´t got no
TTITLE21=Tennesie Erni Ford - Mister and Mississippi
TTITLE22=Gene Autry - Bluberry Hill
TTITLE23=Bob Wills - Right or Wrong
TTITLE24=Jimmy Rodgers - Ben Dewberry´s final Run
TTITLE25=Walker´s Corbin Ramblers - Ned went A Fishin
EXTD=
EXTT0=
EXTT1=
EXTT2=
EXTT3=
EXTT4=
EXTT5=
EXTT6=
EXTT7=
EXTT8=
EXTT9=
EXTT10=
EXTT11=
EXTT12=
EXTT13=
EXTT14=
EXTT15=
EXTT16=
EXTT17=
EXTT18=
EXTT19=
EXTT20=
EXTT21=
EXTT22=
EXTT23=
EXTT24=
EXTT25=
PLAYORDER=
